<svg xmlns="http://www.w3.org/2000/svg" viewBox="0 0 320 320" role="img" aria-label="Ilustración de proyectos de código">
  <defs>
    <linearGradient id="bg2" x1="0" y1="0" x2="1" y2="1">
      <stop offset="0%" stop-color="#d97706"/>
      <stop offset="100%" stop-color="#f59e0b"/>
    </linearGradient>
  </defs>
  <rect width="320" height="320" rx="12" fill="url(#bg2)"/>
  <!-- Ventana de código -->
  <rect x="50" y="70" width="220" height="180" rx="10" fill="#1f3a5f"/>
  <!-- Barra superior -->
  <rect x="50" y="70" width="220" height="24" rx="10" fill="#0f2547"/>
  <circle cx="68" cy="82" r="4" fill="#ff6b6b"/>
  <circle cx="82" cy="82" r="4" fill="#fbbf24"/>
  <circle cx="96" cy="82" r="4" fill="#34d399"/>
  <!-- Líneas de "código" -->
  <rect x="65" y="110" width="60" height="6" rx="2" fill="#d97706"/>
  <rect x="130" y="110" width="80" height="6" rx="2" fill="#f7f5f0"/>
  <rect x="75" y="128" width="100" height="6" rx="2" fill="#34d399"/>
  <rect x="180" y="128" width="40" height="6" rx="2" fill="#f7f5f0"/>
  <rect x="65" y="146" width="50" height="6" rx="2" fill="#d97706"/>
  <rect x="120" y="146" width="90" height="6" rx="2" fill="#f7f5f0"/>
  <rect x="75" y="164" width="120" height="6" rx="2" fill="#60a5fa"/>
  <rect x="65" y="182" width="80" height="6" rx="2" fill="#d97706"/>
  <rect x="150" y="182" width="60" height="6" rx="2" fill="#f7f5f0"/>
  <rect x="75" y="200" width="40" height="6" rx="2" fill="#34d399"/>
  <rect x="120" y="200" width="100" height="6" rx="2" fill="#f7f5f0"/>
  <rect x="65" y="218" width="70" height="6" rx="2" fill="#d97706"/>
</svg>
